P3
3 6
255
14 24 15 31 43 30 16 29 23 17 33 19 22 44 34 28 74 47 
50 67 39 25 51 51 38 40 33 27 38 36 49 128 54 64 106 55 
18 37 40 22 66 31 35 32 25 53 99 43 28 28 23 20 49 41 