P3
3 3
255
144 67 66 58 163 104 0 0 0 
186 159 78 49 161 180 159 78 124 
86 71 68 140 130 174 174 179 178 