P3
3 3
255
239 41 44 185 183 166 113 112 192 
255 255 213 207 241 255 217 67 116 
0 0 0 151 110 175 255 255 255 