P3
3 3
255
119 58 65 85 112 54 0 0 0 
233 214 204 148 214 226 152 103 140 
0 0 0 101 114 132 143 153 173 