P3
3 3
255
219 89 73 100 207 188 92 139 197 
255 242 221 138 210 226 161 153 168 
0 0 0 0 133 132 138 207 221 