P3
3 3
255
209 76 72 69 166 135 36 80 158 
251 198 80 102 163 176 206 72 126 
25 23 22 141 125 161 246 249 248 