P3
3 3
255
249 16 52 16 246 55 16 48 248 
251 248 56 12 213 255 206 48 255 
0 0 22 121 125 124 255 249 248 