P3
3 3
255
31 38 25 14 71 29 15 63 59 
52 144 48 27 163 107 68 68 62 
16 47 29 31 113 64 80 235 148 