P3
3 3
255
237  30  36 105 189  69  56  83 164 
246 235  20 111 204 221 184  81 158
  1   1   1 128 127 127 255 255 255 