P3
6 4
255
149 96 112 172 113 157 138 105 176 169 138 130 
224 135 237 213 196 255 175 109 76 99 85 173 
184 52 87 131 79 140 192 161 140 159 171 104 
22 56 125 113 158 135 255 47 46 218 177 64 
173 52 123 139 118 196 244 255 255 229 198 231 
204 137 197 176 114 144 119 98 115 11 19 5 