P3
6 4
255
165 76 103 202 121 127 80 75 111 93 76 69 
153 115 170 226 205 244 145 65 61 76 49 98 
178 48 74 97 38 71 255 255 177 255 178 138 
72 35 71 113 93 85 165 44 74 255 255 167 
218 57 108 109 99 159 255 255 255 202 208 223 
117 120 127 113 75 95 72 46 66 28 12 21 