P3
3 3
255
245 53 56 52 156 60 36 102 141 
180 175 60 31 114 118 194 39 76 
0 8 4 69 77 105 255 255 255 