P3
3 3
255
225 46 54 247 242 190 124 126 155 
255 213 148 220 226 228 37 97 137 
61 45 50 90 87 127 255 251 255 