P3
3 3
255
255 71 72 41 135 43 18 81 122 
255 255 111 63 185 163 202 40 72 
15 28 20 135 175 87 217 212 199 