P3
3 3
255
56 108 166 5 248 121 118 243 108 
153 66 31 255 110 255 127 66 2 
146 188 116 118 64 76 139 166 235 