P3
3 3
255
255 81 97 85 157 73 67 81 130 
200 208 70 92 161 204 176 42 92 
1 0 1 61 50 56 255 223 255 