P3
3 3
255
255 165 157 56 129 133 178 100 138 
255 255 253 91 140 157 255 255 255 
62 46 52 106 152 167 255 255 255 