P3
3 3
255
253 12 13 17 250 19 16 17 255 
242 245 20 23 227 255 225 28 255 
16 13 12 139 129 125 254 255 254

