P3
3 3
255
255 173 141 117 160 163 27 38 51 
255 255 255 118 158 171 255 253 252 
47 83 108 47 123 135 255 255 254 