P3
4 6
255
29 19 0 139 139 72 17 79 77 12 73 9 49 106 93 55 205 134 
118 56 4 0 24 49 97 9 4 0 0 0 67 162 22 113 108 13 
114 107 13 0 0 21 3 102 19 100 0 0 185 211 43 68 0 3 
0 40 39 224 252 235 146 238 164 99 164 112 51 84 63 0 13 2 