P3
3 3
255
255 255 0 0 233 206 0 255 255 
255 255 0 255 255 149 0 0 163 
0 176 255 121 255 255 255 255 199 