P3
3 3
255
255 212 188 148 189 188 72 117 127 
255 255 243 96 144 160 255 255 255 
77 0 26 227 238 232 240 241 241 