P3
3 3
255
206 105 124 60 179 132 64 102 160 
191 255 59 0 198 220 197 97 181 
0 0 0 99 141 126 207 255 255 