P3
3 3
255
162 79 110 149 193 144 176 96 186 
252 244 57 157 191 216 175 80 148 
0 0 0 176 118 179 250 253 232 