P3
3 3
255
253 12 13 10 250 14 6 17 255 
242 245 10 13 227 255 225 18 255 
0 0 0 139 129 125 254 255 254

