P3
3 3
255
179 83 103 180 184 178 63 0 0 
134 25 66 57 84 94 183 182 217 
0 111 0 0 111 0 21 91 141 