P3
3 3
255
216 68 78 68 184 81 46 106 153 
244 255 128 57 169 166 208 62 110 
0 2 1 104 120 106 255 255 255 