P3
3 3
255
154 0 87 244 98 0 67 55 57 
161 161 162 133 135 133 135 253 127 
225 202 65 116 116 116 161 161 162 