P3
3 3
255
255 211 184 195 227 223 86 87 111 
255 234 196 32 105 123 255 255 255 
68 49 65 53 129 132 244 251 250 