P3
3 3
255
209 41 62 148 178 140 121 123 192 
255 255 76 252 220 255 111 77 151 
0 0 0 193 141 192 255 255 255 