P3
6 4
255
90 62 65 160 138 120 54 89 114 54 77 51 
156 144 191 255 255 255 180 101 85 54 72 134 
215 72 94 78 44 77 235 255 177 255 255 171 
39 33 65 58 101 65 125 44 54 207 202 111 
121 42 68 82 93 126 255 255 255 255 255 255 
145 153 143 90 93 94 62 62 65 133 85 106 